# xmcd
#
# Track frame offsets:
#	150
#	10679
#	22969
#	33910
#	45873
#	58039
#	67671
#	78150
#	91290
#	103135
#	114349
#	128107
#	140707
#	153606
#	164370
#	178005
#	188532
#	201619
#	212820
#	226170
#
# Disc length: 3174
#
# Revision: 1
# Processed by: cddbd v1.5.1PL0 Copyright (c) Steve Scherf et al.
# Submitted via: ExactAudioCopy v0.95a5
# Normalized: r0:TDELIM( - )
#
DISCID=000c6414
DTITLE=Various Artist - Blues Classics The Best Of [CD2)
DYEAR=2003
DGENRE=Blues
TTITLE0=Tommy Douglas - If You Don't, Why Don't Ya
TTITLE1=John Lee Hooker - Crying All Night
TTITLE2=Julia Lee and Her Boy Friends - Don't Save It Too Long (The Money Song)
TTITLE3=Tiny Kennedy - Sister Flat-top
TTITLE4=Floyd Dixon - Blues For Cuba
TTITLE5=Walter Brown - Hello And Goodbye
TTITLE6=Lowell Fulson - Chuck With The Boys
TTITLE7=Amos Milburn - Bad Bad Whiskey
TTITLE8=Walter Brown - Work Don't Bother Me
TTITLE9=Smokey Hogg - I Gotta Ride
TTITLE10=T-Bone Walker - Too Lazy
TTITLE11=Floyd Dixon - Hamp's Gumbo
TTITLE12=Babs Tree Bips and Bobs - Oo-Pa-Pa-De
TTITLE13=Tommy Douglas - Kickapoo
TTITLE14=Julia Lee and Her Boy Friends - Tonight' The Night
TTITLE15=Tiny Kennedy - It Ain't No Use
TTITLE16=Bis Moten and His Men - When You Want Chili
TTITLE17=Walter Brown - Lyin' Woman Blues
TTITLE18=Tommy Douglas - Tea For Tommy
TTITLE19=Tiny Kennedy - Jumpin' Little Woman
EXTD=
EXTT0=
EXTT1=
EXTT2=
EXTT3=
EXTT4=
EXTT5=
EXTT6=
EXTT7=
EXTT8=
EXTT9=
EXTT10=
EXTT11=
EXTT12=
EXTT13=
EXTT14=
EXTT15=
EXTT16=
EXTT17=
EXTT18=
EXTT19=
PLAYORDER=
